<?xml version="1.0" encoding="UTF-8" standalone="no"?>
<svg
   width="16"
   height="16"
   version="1.1"
   id="svg1"
   sodipodi:docname="TextFile.svg"
   inkscape:version="1.4 (86a8ad7, 2024-10-11)"
   xmlns:inkscape="http://www.inkscape.org/namespaces/inkscape"
   xmlns:sodipodi="http://sodipodi.sourceforge.net/DTD/sodipodi-0.dtd"
   xmlns="http://www.w3.org/2000/svg"
   xmlns:svg="http://www.w3.org/2000/svg">
  <defs
     id="defs1" />
  <sodipodi:namedview
     id="namedview1"
     pagecolor="#505050"
     bordercolor="#eeeeee"
     borderopacity="1"
     inkscape:showpageshadow="0"
     inkscape:pageopacity="0"
     inkscape:pagecheckerboard="0"
     inkscape:deskcolor="#505050"
     inkscape:zoom="25.21875"
     inkscape:cx="0.57496902"
     inkscape:cy="13.026022"
     inkscape:window-width="1920"
     inkscape:window-height="1009"
     inkscape:window-x="1912"
     inkscape:window-y="-8"
     inkscape:window-maximized="1"
     inkscape:current-layer="svg1" />
  <path
     id="path4"
     d="M 7 1 L 6.4375 3.2539062 L 5.7519531 3.5390625 L 3.7578125 2.34375 L 2.34375 3.7578125 L 3.5371094 5.7480469 L 3.2597656 6.4355469 L 1 7 L 1 9 L 3.2539062 9.5644531 L 3.5390625 10.248047 L 2.34375 12.242188 L 3.7578125 13.65625 L 5.7460938 12.462891 L 6.4355469 12.742188 L 7 15 L 9 15 L 9.5625 12.746094 L 10.248047 12.460938 L 12.242188 13.65625 L 13.65625 12.242188 L 12.462891 10.251953 L 12.740234 9.5644531 L 15 9 L 15 7 L 12.746094 6.4355469 L 12.460938 5.7519531 L 13.65625 3.7578125 L 12.242188 2.34375 L 10.253906 3.5371094 L 9.5644531 3.2578125 L 9 1 L 7 1 z M 8 6.03125 C 9.1425645 6.03125 9.9705335 6.9523405 10.001953 7.9746094 C 10.002477 7.9916472 10.001874 8.0082997 10.001953 8.0253906 C 9.9705335 9.0476597 9.1425645 9.96875 8 9.96875 C 6.8574354 9.96875 6.0294665 9.0476597 5.9980469 8.0253906 C 5.9975232 8.0083528 5.9981258 7.9917003 5.9980469 7.9746094 C 6.0294665 6.9523405 6.8574355 6.03125 8 6.03125 z "
     style="stroke:none;fill:#e0e0e0;fill-opacity:1" />
</svg>
