<?xml version="1.0" encoding="UTF-8" standalone="no"?>
<svg
   width="16"
   height="16"
   version="1.1"
   id="svg2"
   sodipodi:docname="GodotMonochrome.svg"
   inkscape:version="1.4 (86a8ad7, 2024-10-11)"
   xmlns:inkscape="http://www.inkscape.org/namespaces/inkscape"
   xmlns:sodipodi="http://sodipodi.sourceforge.net/DTD/sodipodi-0.dtd"
   xmlns="http://www.w3.org/2000/svg"
   xmlns:svg="http://www.w3.org/2000/svg">
  <defs
     id="defs2" />
  <sodipodi:namedview
     id="namedview2"
     pagecolor="#505050"
     bordercolor="#eeeeee"
     borderopacity="1"
     inkscape:showpageshadow="0"
     inkscape:pageopacity="0"
     inkscape:pagecheckerboard="0"
     inkscape:deskcolor="#505050"
     inkscape:zoom="25.21875"
     inkscape:cx="3.7670384"
     inkscape:cy="11.439901"
     inkscape:window-width="1920"
     inkscape:window-height="1009"
     inkscape:window-x="1912"
     inkscape:window-y="-8"
     inkscape:window-maximized="1"
     inkscape:current-layer="svg2" />
  <g
     fill="#fff"
     transform="scale(.01563)"
     id="g2"
     style="fill:#e0e0e0;fill-opacity:1">
    <path
       d="m105 673 152 14q12 1 15 14l4 67 132 10 8-61q2-11 15-15h162q13 4 15 15l8 61 132-10 4-67q3-13 15-14l152-14V427q30-39 56-81-35-59-83-108-43 20-82 47-40-37-88-64 7-51 8-102-59-28-123-42-26 43-46 89-49-7-98 0-20-46-46-89-64 14-123 42 1 51 8 102-48 27-88 64-39-27-82-47-48 49-83 108 26 42 56 81zm0 33v39c0 276 813 276 814 0v-39l-134 12-5 69q-2 10-14 13l-162 11q-12 0-16-11l-10-65H446l-10 65q-4 11-16 11l-162-11q-12-3-14-13l-5-69zM725 436a90 90 0 0 1 0 180 90 90 0 0 1 0-180zM299 436a90 90 0 0 1 0 180 90 90 0 0 1 0-180zM483 514c0-34 58-34 58 0v86c0 34-58 34-58 0z"
       id="path1"
       style="fill:#e0e0e0;fill-opacity:1" />
    <circle
       cx="307"
       cy="532"
       r="60"
       id="circle1"
       style="fill:#e0e0e0;fill-opacity:1" />
    <circle
       cx="717"
       cy="532"
       r="60"
       id="circle2"
       style="fill:#e0e0e0;fill-opacity:1" />
  </g>
</svg>
